<svg xmlns="http://www.w3.org/2000/svg" id="Layer_2" data-name="Layer 2" viewBox="0 0 134.8 134.8"><defs><style>@media (prefers-color-scheme:dark){.cls-1{fill:#e3ddd8}}</style></defs><path id="Layer_1-2" d="M67.66 0C30.28 0 0 31.41 0 68.18s30.28 66.62 67.66 66.62 67.14-29.86 67.14-66.62S104.79 0 67.66 0Zm14.32 4.56c4.26 2.31 6.48 4.48 6.48 9.48v95.49L46.34 16.85v-2.81c0-5.6 2.14-7.07 8.44-10.1 4.1-1.55 8.42-2.39 12.89-2.39 4.98 0 9.79 1.06 14.32 3.01ZM18.69 68.18c0-18.42 5.75-35.47 15.02-47.72v94.62c-9.27-11.84-15.02-28.49-15.02-46.9Zm35.95 62.75c-4.09-1.76-8.31-4.57-8.31-10.17V25.28l42.13 92.68v2.81c0 5.61-4.07 8.53-8.51 10.39-3.93 1.37-8.04 2.1-12.29 2.1-4.51 0-8.87-.81-13.02-2.32Zm46.45-15.46V20.08c9.4 12.27 15.27 29.49 15.27 48.1s-5.88 35.42-15.28 47.28Z" data-name="Layer 1" style="fill:#2d3d2e"/></svg>