<?xml version="1.0" standalone="no"?>
<!DOCTYPE svg PUBLIC "-//W3C//DTD SVG 20010904//EN"
 "http://www.w3.org/TR/2001/REC-SVG-20010904/DTD/svg10.dtd">
<svg version="1.0" xmlns="http://www.w3.org/2000/svg"
 width="700.000000pt" height="700.000000pt" viewBox="0 0 700.000000 700.000000"
 preserveAspectRatio="xMidYMid meet">
<metadata>
Created by potrace 1.14, written by Peter Selinger 2001-2017
</metadata>
<g transform="translate(0.000000,700.000000) scale(0.100000,-0.100000)"
fill="#000000" stroke="none">
<path d="M3299 6995 c-2 -1 -44 -6 -93 -10 -49 -4 -96 -8 -105 -10 -9 -1 -43
-6 -76 -10 -33 -4 -103 -16 -155 -27 -52 -10 -106 -22 -120 -24 -118 -23 -411
-116 -535 -169 -500 -216 -865 -466 -1226 -843 -83 -86 -254 -290 -317 -377
-178 -247 -324 -519 -448 -835 -78 -199 -164 -540 -189 -745 -3 -27 -8 -59
-10 -70 -12 -60 -20 -225 -20 -420 0 -196 5 -288 21 -420 8 -68 44 -278 55
-320 6 -22 13 -48 14 -57 36 -186 171 -546 287 -766 94 -177 83 -159 196 -331
170 -259 406 -524 642 -721 36 -30 67 -57 70 -60 9 -10 195 -146 240 -177 482
-326 1092 -541 1675 -590 114 -10 505 -10 610 -1 704 63 1347 319 1889 752
465 372 837 873 1051 1416 40 102 114 320 121 359 3 14 14 56 24 95 37 139 75
370 87 532 15 184 8 594 -11 714 -3 14 -10 59 -16 100 -6 41 -14 89 -16 105
-55 348 -233 826 -433 1163 -53 90 -184 290 -218 332 -185 232 -181 228 -353
401 -362 365 -789 638 -1281 819 -162 60 -436 131 -599 156 -25 3 -53 8 -63
10 -89 16 -252 27 -453 30 -133 1 -244 1 -245 -1z m441 -89 c46 -7 111 -18
132 -22 64 -11 255 -68 315 -93 245 -101 373 -236 399 -419 8 -55 12 -5032 4
-5037 -3 -2 -122 254 -265 568 -142 315 -278 613 -301 662 -52 113 -62 134
-204 450 -173 381 -377 829 -416 913 -19 41 -34 75 -34 77 0 2 -22 51 -50 110
-27 59 -50 108 -50 110 0 2 -15 36 -34 77 -19 40 -46 100 -61 133 -234 513
-305 670 -407 895 -66 146 -138 303 -159 348 -21 46 -39 86 -39 88 0 2 -23 52
-51 111 -28 60 -60 131 -71 158 -12 28 -26 56 -31 63 -14 18 -12 254 2 315 33
142 101 213 311 325 167 89 370 147 580 168 36 4 67 8 68 10 6 4 323 -4 362
-10z m1592 -1063 c125 -179 264 -425 341 -603 8 -19 24 -55 35 -80 32 -73 112
-296 147 -415 34 -113 88 -329 101 -403 10 -56 24 -139 28 -157 3 -18 12 -76
21 -150 26 -202 35 -348 35 -565 -1 -217 -10 -411 -25 -510 -2 -14 -7 -49 -10
-78 -52 -470 -258 -1098 -483 -1472 -12 -19 -29 -48 -38 -65 -22 -39 -151
-232 -178 -267 -12 -14 -29 -37 -38 -49 -17 -22 -18 93 -18 2449 0 1360 2
2472 4 2472 2 0 37 -48 78 -107z m-3584 -3589 l-3 -1226 -60 83 c-151 209
-323 523 -419 764 -100 252 -198 604 -232 835 -3 19 -10 62 -15 95 -13 72 -13
73 -38 350 -9 92 -6 602 3 665 2 19 7 67 11 105 10 121 37 292 80 505 9 46 69
274 87 330 135 427 294 758 528 1094 l55 80 3 -1227 c1 -675 1 -1779 0 -2453z
m688 3369 c15 -32 39 -86 55 -121 16 -35 29 -65 29 -67 0 -1 22 -49 49 -106
26 -57 64 -140 84 -184 19 -44 48 -109 65 -145 16 -36 87 -191 157 -345 70
-154 138 -305 152 -335 14 -30 59 -129 100 -220 41 -91 86 -190 100 -220 56
-122 74 -161 143 -315 40 -88 88 -194 107 -235 19 -41 52 -113 73 -160 21 -47
52 -116 70 -155 18 -38 77 -169 132 -290 55 -121 111 -245 125 -275 26 -56 61
-134 103 -225 75 -165 178 -392 211 -463 22 -46 39 -86 39 -87 0 -2 18 -42 39
-89 22 -46 104 -225 182 -398 l143 -313 -1 -113 c-3 -249 -100 -398 -343 -526
-107 -56 -297 -114 -433 -131 -23 -3 -71 -10 -107 -15 -163 -21 -489 2 -655
46 -33 9 -64 17 -70 18 -55 12 -142 44 -207 76 -201 99 -309 211 -354 365 -16
56 -18 208 -18 2572 -1 1382 0 2513 2 2513 1 0 14 -26 28 -57z"/>
</g>
</svg>
